<?xml version="1.0" encoding="UTF-8"?>
<svg id="Layer_2" data-name="Layer 2" xmlns="http://www.w3.org/2000/svg" viewBox="0 0 595.28 841.89">
  <defs>
    <style>
      .cls-1 {
        fill: #f8f8f8;
      }
    </style>
  </defs>
  <g id="Layer_1-2" data-name="Layer 1">
    <path class="cls-1" d="m592.78,0c-31.5,13.38-59.36,35.17-79.68,62.9-15.4,21.01-25.88,45.51-37.74,68.59-13.29,25.86-26.29,51.86-39.47,77.77-26.54,52.14-53.07,104.29-79.52,156.48-13.34,26.32-26.58,52.7-39.92,79.02-3.66,7.21-7.31,14.42-10.97,21.63-1.16,2.28-5.11,13.16-7.33,13.71-3.4.85-14.72-26.47-16.9-30.75-52.76-103.68-105.77-207.23-158.14-311.1-23.34-46.3-43.86-92.13-88.27-122.03C25.49,9.93,15.65,4.52,5.45,0H0v317.4c42.96,84.71,85.98,169.38,128.86,254.13,26.72,52.81,53.57,105.55,80.38,158.32,13.07,25.74,26.08,51.51,39.14,77.25,5.88,11.59,11.76,23.19,17.62,34.8h63.09c5.18-10.29,10.39-20.56,15.6-30.82,83.67-164.65,166.93-329.51,250.59-494.17V0h-2.49Z"/>
  </g>
</svg>